<?xml version="1.0" standalone="no"?>
<!DOCTYPE svg PUBLIC "-//W3C//DTD SVG 20010904//EN"
 "http://www.w3.org/TR/2001/REC-SVG-20010904/DTD/svg10.dtd">
<svg version="1.0" xmlns="http://www.w3.org/2000/svg"
 width="2500.000000pt" height="2500.000000pt" viewBox="0 0 2500.000000 2500.000000"
 preserveAspectRatio="xMidYMid meet">
<metadata>
Created by potrace 1.14, written by Peter Selinger 2001-2017
</metadata>
<g transform="translate(0.000000,2500.000000) scale(0.100000,-0.100000)"
fill="#000000" stroke="none">
<path d="M2950 19937 c520 -264 906 -648 1144 -1137 81 -166 164 -406 189
-550 3 -14 10 -43 15 -65 6 -22 13 -51 16 -65 3 -14 23 -104 46 -200 22 -96
61 -265 86 -375 25 -110 51 -225 59 -255 8 -30 16 -66 19 -80 2 -14 12 -56 21
-95 9 -38 22 -98 30 -132 18 -76 40 -171 59 -255 8 -35 29 -123 46 -196 17
-74 33 -141 35 -150 2 -10 12 -57 24 -105 12 -49 23 -103 26 -120 4 -18 15
-68 26 -112 12 -44 23 -89 25 -100 3 -17 7 -33 19 -85 1 -3 7 -32 14 -65 7
-33 19 -82 26 -110 8 -27 16 -64 19 -81 3 -18 18 -81 32 -140 14 -60 27 -116
29 -124 2 -8 11 -48 20 -89 9 -40 18 -78 19 -85 2 -6 6 -22 9 -36 7 -27 75
-322 81 -355 5 -20 90 -388 126 -545 53 -226 111 -477 116 -499 3 -13 46 -200
95 -415 50 -215 92 -398 94 -406 2 -8 10 -45 19 -81 8 -37 18 -78 20 -90 3
-13 15 -64 27 -114 11 -49 22 -97 24 -105 6 -28 14 -65 44 -191 17 -69 32
-136 35 -150 7 -36 107 -469 127 -549 6 -25 13 -56 15 -70 3 -14 13 -61 24
-105 10 -44 28 -120 40 -170 11 -49 31 -137 45 -195 45 -198 107 -465 151
-660 25 -107 58 -251 74 -320 17 -69 64 -273 105 -455 42 -181 82 -357 90
-390 17 -69 144 -620 151 -650 9 -44 13 -63 29 -130 9 -38 18 -77 20 -85 3
-18 109 -477 130 -565 7 -33 21 -89 29 -125 8 -36 25 -105 36 -155 12 -49 23
-99 26 -110 2 -11 6 -29 8 -40 2 -11 25 -110 51 -220 52 -219 58 -246 73 -320
6 -27 21 -90 32 -140 12 -49 24 -98 26 -109 2 -10 12 -57 24 -105 11 -47 27
-115 35 -151 9 -36 18 -76 21 -90 3 -14 34 -151 70 -305 107 -460 165 -713
193 -840 l27 -120 2711 -3 2711 -2 87 137 c47 76 92 147 98 157 7 11 39 63 72
116 33 53 65 105 72 116 7 10 56 89 110 174 54 85 100 158 102 163 2 5 25 42
52 83 27 40 49 78 49 84 0 5 5 10 10 10 6 0 10 7 10 15 0 8 4 15 9 15 5 0 12
8 15 18 4 10 34 62 69 115 34 53 69 109 78 124 22 36 146 233 159 253 11 16
44 69 120 192 24 40 69 111 100 158 30 47 60 94 66 105 6 11 71 115 144 230
73 116 138 219 144 229 6 11 14 25 19 30 16 22 257 408 257 412 0 2 15 26 33
52 18 26 129 201 247 390 118 188 223 355 232 370 10 15 25 40 34 57 9 16 33
54 53 85 20 30 41 64 48 75 7 11 80 128 163 260 84 132 157 249 163 260 7 11
14 22 17 25 3 3 10 14 17 25 22 37 186 300 240 382 29 46 53 87 53 93 0 5 3
10 8 10 4 0 16 17 27 38 11 20 33 57 50 82 16 25 35 54 42 65 13 22 89 142
113 180 8 12 31 49 50 80 19 31 42 68 50 81 16 24 105 166 300 479 66 105 124
195 129 202 6 6 20 29 32 50 18 34 162 265 189 303 11 16 405 643 451 719 26
42 529 842 553 881 13 19 39 60 58 90 20 30 60 94 89 142 30 48 83 133 119
190 36 56 70 110 75 120 12 21 459 733 520 828 23 36 81 128 129 205 48 77
121 192 162 255 41 63 78 124 84 135 5 11 50 83 99 160 83 129 336 533 371
590 25 42 287 458 417 663 68 107 123 195 123 197 0 2 44 73 98 157 94 147
171 269 424 675 64 104 121 193 125 198 4 6 80 125 167 265 87 140 178 284
201 320 43 68 106 168 140 224 11 18 94 151 185 295 91 144 172 274 181 289 9
15 55 88 102 162 47 74 132 209 189 300 56 91 129 205 160 255 32 49 58 93 58
97 0 5 -1218 7 -2706 6 l-2706 -3 -27 -50 c-65 -122 -164 -311 -229 -435 -38
-74 -102 -196 -141 -270 -40 -74 -83 -157 -97 -185 -14 -27 -40 -77 -58 -110
-17 -33 -72 -136 -120 -230 -49 -93 -103 -197 -121 -230 -18 -33 -62 -116 -97
-185 -36 -69 -88 -168 -115 -220 -28 -52 -77 -147 -110 -210 -33 -63 -76 -144
-95 -180 -32 -59 -90 -170 -233 -445 -29 -55 -75 -143 -102 -195 -28 -52 -81
-153 -118 -225 -37 -71 -84 -161 -105 -200 -21 -38 -64 -122 -97 -185 -99
-189 -173 -330 -218 -415 -23 -44 -75 -143 -115 -220 -40 -77 -92 -176 -115
-220 -93 -175 -140 -265 -195 -370 -32 -60 -83 -159 -115 -220 -32 -60 -87
-166 -122 -235 -36 -69 -80 -152 -98 -185 -18 -33 -63 -118 -100 -190 -37 -71
-89 -170 -115 -220 -120 -228 -164 -312 -341 -650 -46 -88 -98 -187 -115 -220
-18 -33 -51 -96 -73 -140 -23 -44 -60 -116 -84 -160 -39 -73 -80 -150 -260
-495 -33 -63 -101 -194 -152 -290 -51 -96 -125 -238 -165 -315 -40 -77 -87
-167 -105 -200 -18 -33 -63 -118 -100 -190 -37 -71 -87 -166 -110 -210 -23
-44 -73 -138 -110 -210 -37 -71 -84 -161 -105 -200 -65 -123 -146 -277 -195
-373 -26 -51 -51 -95 -56 -98 -5 -3 -9 -11 -9 -19 0 -7 -17 -44 -39 -82 -21
-37 -72 -133 -113 -213 -41 -80 -98 -188 -125 -240 -28 -52 -74 -141 -104
-198 -30 -57 -70 -133 -89 -170 -20 -37 -82 -155 -137 -262 -56 -107 -117
-224 -136 -260 l-35 -65 -51 -3 c-28 -2 -51 1 -51 6 0 4 -7 60 -15 123 -9 63
-18 132 -21 154 -2 22 -6 51 -9 65 -2 14 -9 68 -15 120 -6 52 -13 106 -16 120
-4 25 -20 138 -29 215 -3 22 -7 58 -11 80 -10 69 -13 89 -19 144 -4 30 -8 61
-10 70 -2 9 -6 44 -10 76 -4 33 -8 71 -10 85 -2 14 -7 48 -10 75 -4 28 -8 57
-10 65 -2 8 -7 44 -10 80 -4 36 -8 67 -10 70 -3 5 -8 46 -20 150 -1 14 -6 48
-10 75 -16 118 -24 170 -30 220 -7 55 -25 195 -30 225 -6 41 -50 368 -70 530
-3 25 -8 61 -11 80 -3 19 -16 118 -30 220 -13 102 -26 199 -29 215 -2 17 -7
53 -10 80 -4 28 -8 61 -10 75 -2 14 -7 48 -10 75 -4 28 -9 62 -11 76 -2 14
-11 79 -19 145 -8 65 -18 137 -21 159 -10 67 -11 78 -18 130 -9 64 -17 123
-21 155 -2 14 -11 81 -20 150 -9 69 -18 134 -20 145 -1 11 -6 47 -9 80 -4 33
-9 67 -11 75 -2 8 -7 40 -10 70 -3 30 -8 66 -10 80 -2 14 -9 63 -15 110 -14
109 -19 142 -25 183 -12 86 -14 105 -19 147 -3 25 -15 110 -26 190 -10 80 -24
181 -30 225 -6 44 -13 98 -16 120 -10 70 -12 89 -19 150 -3 33 -8 67 -10 75
-4 15 -11 61 -20 140 -5 42 -20 140 -29 185 -9 49 -18 102 -22 125 -3 14 -9
48 -15 76 -5 28 -12 64 -15 80 -5 26 -19 91 -29 134 -2 8 -11 44 -19 80 -28
119 -37 154 -67 265 -46 165 -116 385 -166 520 -25 66 -46 125 -47 130 -27 99
-315 709 -375 794 -12 16 -21 32 -21 35 0 14 -185 303 -263 411 -66 91 -131
179 -137 185 -3 3 -36 43 -74 90 -86 107 -203 236 -327 359 -157 158 -176 175
-424 379 -11 10 -49 39 -85 65 -36 26 -72 54 -80 60 -8 7 -80 56 -160 109
-467 309 -987 542 -1570 701 -152 42 -391 96 -580 132 -14 3 -36 7 -50 10 -58
11 -77 15 -115 20 -22 3 -56 8 -75 12 -19 3 -48 7 -65 8 -46 3 -147 16 -175
23 -14 3 -518 7 -1120 9 l-1095 3 125 -63z"/>
</g>
</svg>
